<svg width="77" height="77" viewBox="0 0 77 77" fill="none" xmlns="http://www.w3.org/2000/svg">
<path fill-rule="evenodd" clip-rule="evenodd" d="M57.1002 63.1665L74.8043 52.5554L53.2333 2.3291L31.6621 50.5523L57.1002 63.1665Z" fill="#66D4F1"/>
<path fill-rule="evenodd" clip-rule="evenodd" d="M53.2333 2.3291L57.1002 63.1665L31.6621 50.5523L53.2333 2.3291Z" fill="#4FC0E8"/>
<path fill-rule="evenodd" clip-rule="evenodd" d="M18.2096 28.5596L2.33398 37.2113V54.5145L18.2096 63.1661L34.0852 54.5145V37.2113L18.2096 28.5596Z" fill="#F76C82"/>
<path fill-rule="evenodd" clip-rule="evenodd" d="M2.33398 37.2119L18.2096 45.8635V63.1667L2.33398 54.5151V37.2119Z" fill="#EB5463"/>
<path fill-rule="evenodd" clip-rule="evenodd" d="M34.0846 37.2119L18.209 45.8635V63.1667L34.0846 54.5151V37.2119Z" fill="#D94452"/>
<path d="M38.57 74.671C46.7969 74.671 53.4662 68.0136 53.4662 59.8013C53.4662 51.589 46.7969 44.9316 38.57 44.9316C30.3431 44.9316 23.6738 51.589 23.6738 59.8013C23.6738 68.0136 30.3431 74.671 38.57 74.671Z" fill="#FDCD56"/>
</svg>
